<svg xmlns="http://www.w3.org/2000/svg" version="1.1" xmlns:xlink="http://www.w3.org/1999/xlink" xmlns:svgjs="http://svgjs.com/svgjs" width="1000" height="1000"><rect width="1000" height="1000" rx="400" ry="400" fill="#555555"></rect><g transform="matrix(15.909090909090908,0,0,15.909090909090908,150,150)"><svg xmlns="http://www.w3.org/2000/svg" version="1.1" xmlns:xlink="http://www.w3.org/1999/xlink" xmlns:svgjs="http://svgjs.com/svgjs" width="44" height="44"><svg xmlns="http://www.w3.org/2000/svg" class="icon icon-tabler icon-tabler-notebook" width="44" height="44" viewBox="0 0 24 24" stroke-width="1.5" stroke="#00bfd8" fill="none" stroke-linecap="round" stroke-linejoin="round">
  <path stroke="none" d="M0 0h24v24H0z" fill="none"></path>
  <path d="M6 4h11a2 2 0 0 1 2 2v12a2 2 0 0 1 -2 2h-11a1 1 0 0 1 -1 -1v-14a1 1 0 0 1 1 -1m3 0v18"></path>
  <line x1="13" y1="8" x2="15" y2="8"></line>
  <line x1="13" y1="12" x2="15" y2="12"></line>
</svg></svg></g></svg>